Coordinates
version=1
nRows=9
nColumns=38
inDegrees=yes

Units are S.I. units (second, meters, Newtons, ...)
Angles are in degrees.

endheader
time	pelvis_tilt	pelvis_list	pelvis_rotation	pelvis_tx	pelvis_ty	pelvis_tz	hip_flexion_r	hip_adduction_r	hip_rotation_r	knee_angle_r	ankle_angle_r	subtalar_angle_r	mtp_angle_r	hip_flexion_l	hip_adduction_l	hip_rotation_l	knee_angle_l	ankle_angle_l	subtalar_angle_l	mtp_angle_l	lumbar_extension	lumbar_bending	lumbar_rotation	arm_flex_r	arm_add_r	arm_rot_r	elbow_flex_r	pro_sup_r	wrist_flex_r	wrist_dev_r	arm_flex_l	arm_add_l	arm_rot_l	elbow_flex_l	pro_sup_l	wrist_flex_l	wrist_dev_l
      1.91000000	      0.61442647	     -3.29718783	     -4.49902878	      0.65825361	      0.94878088	     -0.23679991	    -15.20653362	      7.22994293	      2.04138694	    -19.92697849	     11.72950949	     -4.34511405	      0.00000000	     27.35329321	     -2.81988118	     -8.30743007	    -14.80813268	      1.98820714	     -2.44966398	      0.00000000	    -10.76219436	      2.03983968	      7.91759016	      7.21604956	    -16.57931314	     21.42409468	     64.96485550	     43.85244445	      0.00000000	      0.00000000	    -11.36187809	     -7.76024221	     36.89984711	     21.77292806	     43.85244445	      0.00000000	      0.00000000
      1.92000000	      0.57209326	     -2.85582023	     -4.52039753	      0.67421687	      0.94872137	     -0.23784926	    -15.05666884	      6.38372134	      0.88525048	    -21.74058217	     10.47703541	     -2.87382709	      0.00000000	     27.25504024	     -2.41906338	     -9.92059742	    -16.05433453	      0.16275900	     -2.60429033	      0.00000000	    -10.48449776	      1.49240601	      7.84645625	      6.68741523	    -16.28403262	     21.26039340	     64.77951140	     43.88589021	      0.00000000	      0.00000000	    -11.40275124	     -7.73007623	     36.86001888	     21.51724227	     43.88589021	      0.00000000	      0.00000000
      1.93000000	      0.47702520	     -2.33473658	     -4.39121005	      0.69005903	      0.94924853	     -0.23910720	    -14.82637909	      5.58732374	      0.10313271	    -23.41167513	      8.38224948	     -2.48952893	      0.00000000	     27.10341423	     -1.92948570	    -10.87308124	    -16.51241339	     -1.09987001	     -2.90892512	      0.00000000	    -10.18725212	      0.86765326	      7.56683210	      6.12935477	    -16.01683316	     21.35009708	     64.60758440	     43.89269825	      0.00000000	      0.00000000	    -11.41478953	     -7.76212682	     36.85709015	     21.47729618	     43.89269825	      0.00000000	      0.00000000
      1.94000000	      0.31809327	     -1.71526889	     -4.16578146	      0.70581139	      0.94999657	     -0.24078792	    -14.18199804	      4.59835864	     -1.06245562	    -25.61815925	      6.08095702	     -1.57485291	      0.00000000	     26.72705022	     -1.08147800	    -10.69380054	    -16.68216338	     -2.52432435	     -3.23273262	      0.00000000	     -9.83606401	      0.17469208	      7.18373498	      5.52295723	    -15.72444152	     21.39966449	     64.28587300	     43.90041787	      0.00000000	      0.00000000	    -11.31432563	     -7.79979192	     36.85773337	     21.46343412	     43.90041787	      0.00000000	      0.00000000
      1.95000000	      0.24982544	     -0.98273440	     -3.89667169	      0.72157008	      0.95099027	     -0.24282783	    -13.24988912	      3.07709766	     -3.39618084	    -28.46325169	      3.96276222	      1.53281385	      0.00000000	     26.25643015	     -0.10480718	    -10.39254526	    -17.18998729	     -4.51582706	     -3.70496019	      0.00000000	     -9.56509323	     -0.59646991	      6.75840744	      5.09369613	    -15.24016284	     21.18782872	     63.27470493	     43.92817974	      0.00000000	      0.00000000	    -11.21134988	     -7.79433892	     36.92048117	     21.42908443	     43.92817974	      0.00000000	      0.00000000
      1.96000000	      0.33884908	     -0.47402830	     -3.67426692	      0.73721676	      0.95262924	     -0.24445220	    -12.53286950	      2.04004807	     -4.50633350	    -30.96457657	      0.22851665	      1.93282556	      0.00000000	     25.78414714	      0.68008180	     -9.39595711	    -18.13634709	     -4.89653993	     -4.40400842	      0.00000000	     -9.51902905	     -1.15384365	      6.42911898	      4.46426111	    -14.94138010	     21.27963692	     62.89057291	     43.93554537	      0.00000000	      0.00000000	    -10.99401773	     -7.80852233	     36.93829733	     21.47309228	     43.93554537	      0.00000000	      0.00000000
      1.97000000	      0.39906216	      0.07841247	     -3.44534611	      0.75260968	      0.95413546	     -0.24609305	    -11.51851399	      0.90112785	     -5.48637435	    -33.80185260	     -3.71617048	      2.56609921	      0.00000000	     25.41514193	      1.60848882	     -7.92090840	    -19.24281948	     -4.49928962	     -5.69546849	      0.00000000	     -9.45937864	     -1.75491382	      6.07897927	      3.85455202	    -14.62428612	     21.34026406	     62.37299059	     43.94313595	      0.00000000	      0.00000000	    -10.66754260	     -7.84807873	     36.96482227	     21.55810954	     43.94313595	      0.00000000	      0.00000000
      1.98000000	      0.34705973	      0.73915301	     -3.22286148	      0.76764319	      0.95540172	     -0.24785712	    -10.11542943	     -0.54738407	     -6.58915969	    -37.08128863	     -7.02038891	      4.47149371	      0.00000000	     24.96178574	      2.98293422	     -5.51204008	    -19.90214271	     -5.07075494	     -9.23234913	      0.00000000	     -9.27886866	     -2.46586919	      5.62626603	      3.46018595	    -14.10169852	     21.24231166	     60.96909489	     43.97009015	      0.00000000	      0.00000000	    -10.34048128	     -7.91022291	     37.13681344	     21.76019069	     43.97009015	      0.00000000	      0.00000000
      1.99000000	      0.53846919	      1.19834996	     -3.06164304	      0.78273217	      0.95693024	     -0.24931771	     -8.96393677	     -1.45350155	     -6.61460114	    -40.20983217	     -9.77548174	      4.77319758	      0.00000000	     24.37426049	      3.82212489	     -4.67534578	    -21.00181225	     -4.04264601	     -9.84960206	      0.00000000	     -9.40678393	     -2.97382552	      5.33060986	      2.90067408	    -13.82511432	     21.37079302	     60.65010931	     43.97458009	      0.00000000	      0.00000000	     -9.93083993	     -7.89998026	     37.15670399	     21.88911152	     43.97458009	      0.00000000	      0.00000000
